<?xml version="1.0" encoding="UTF-8"?>
<svg version="1.1" viewBox="0 0 448 512" xml:space="preserve" xmlns="http://www.w3.org/2000/svg">
 <!--! Font Awesome Pro 6.2.1 by @fontawesome - https://fontawesome.com License - https://fontawesome.com/license (Commercial License) Copyright 2022 Fonticons, Inc. --><path d="m48 32c-26.5 0-48 21.5-48 48v96c0 26.5 21.5 48 48 48h96c26.5 0 48-21.5 48-48v-96c0-26.5-21.5-48-48-48zm80 64v64h-64v-64zm-80 192c-26.5 0-48 21.5-48 48v96c0 26.5 21.5 48 48 48h96c26.5 0 48-21.5 48-48v-96c0-26.5-21.5-48-48-48zm80 64v64h-64v-64zm128-272v96c0 26.5 21.5 48 48 48h96c26.5 0 48-21.5 48-48v-96c0-26.5-21.5-48-48-48h-96c-26.5 0-48 21.5-48 48zm64 16h64v64h-64z"/><g transform="matrix(.37885 0 0 .26503 -53.129 423.22)"><path d="m1062.4 181.86h0.1592c1.53 0.09 3.7835 2.0458 3.7835 3.4858 0 0.59 0.4688 1.2439 1.0488 1.4739 0.79 0.32 0.7414 0.64914-0.2086 1.3191-0.85 0.6-0.9242 0.91119-0.2142 0.92119 1.3 0.02 1.4218 3.9118 0.1318 4.7018-0.57 0.36-0.7917 2.0154-0.5217 4.3554 0.39 3.44 0.19 4.0304-2.18 6.1904-4.3 3.93-4.77 3.1583-4.75-7.9517 0.01-9.64 0.6719-13.785 2.3119-14.415 0.13-0.05 0.2793-0.0811 0.4393-0.0811z"/><path d="m1066.2 24.48c-2.53 0.09-3.9686 2.0519-4.0086 5.5419-0.02 2.28 0.287 2.7267 1.867 2.7267 1.45 0 2.2917-0.92691 3.6517-3.9869 1.76-3.99 1.7616-3.9822-0.7084-4.2522-0.19-0.02-0.3691-0.01948-0.5491-0.02948z"/><path d="m1068.8-4.1207c-0.1 0-0.2085 0.00474-0.3185 0.014739-0.57 0.03-1.2727 0.129-2.0427 0.339-2.07 0.54-2.1195 0.66071-0.6095 1.2307h0.033c0.92 0.34 2.4177 0.23681 3.3277-0.24319 1.54-0.8 1.0901-1.3613-0.3899-1.3413z"/><path d="m1084.9-10.097c-2.34 0-2.2382 2.272 0.1318 2.992 1.04 0.32 2.6722 1.2603 3.6022 2.1003 0.92 0.85 2.618 1.9056 3.778 2.3656 2.59 1.03 6.6994 1.1953 6.6994 0.2653 0-2.07-10.401-7.7233-14.211-7.7233z"/><path d="m1080.8-40.106c-0.28 0.01-0.5482 0.01211-0.8182 0.02211-4.6599 0.13-7.3802 1.3553-7.3802 3.5153 0 1.42 0.5216 1.6676 3.3716 1.5476 1.85-0.08 5.3178-0.21689 7.6878-0.31689 2.88-0.12 5.5388 0.40286 7.9788 1.5329 2.01 0.93 4.5894 2.0746 5.7494 2.5646h0.033c2.28 0.94 5.8592 1.2632 5.8592 0.52324 0-0.25-0.5934-1.6215-1.3234-3.0215-1.67-3.24-4.7395-4.4914-14.47-5.8514-2.5-0.35-4.7484-0.51587-6.6884-0.51587z"/><path d="m1070.8-73.969c-1.57 0-2.872 0.37812-2.872 0.84012 0 0.462-0.6461 0.84012-1.4661 0.84012-1.51 0-8.5829 6.3267-8.5829 7.6717 0.041 1.5984 5.0863 0.37712 11.729-2.8667 5.55-2.705 6.2316-6.4852 1.1916-6.4852z"/><path d="m1081.5-81.397c-0.34-2e-3 -0.7208 0.17561-1.0708 0.5306-0.74 0.737-0.7017 1.2847 0.1483 2.3067 1.03 1.236 1.1854 1.2274 1.9054-0.05159 0.77-1.387 0.037-2.7787-0.9829-2.7857z"/><path d="m1079.5-112.49c-5.5 8e-3 -11.449 2.4965-11.449 5.9325h-0.033c0 1.321 0.4948 1.4554 3.5748 1.0244 1.97-0.274 4.6885-0.83918 6.0185-1.2602s4.45-0.52783 6.93-0.23583c5.48 0.644 6.0614-0.75904 1.5815-3.81-1.71-1.16-4.1225-1.6548-6.6225-1.6508z"/><path d="m1064.4-199.08c-0.45 1e-3 -0.9109-6.3e-4 -1.3509 7e-3 -2.37 0.043-4.5667 0.18455-6.1667 0.44954-3.87 0.639-4.2802 3.0029-0.8402 4.8049 4.08 2.14 19.356 0.64223 20.246-1.9898 0.15-0.458 0.8116-0.84013 1.4716-0.84013 0.65 0 1.1807-0.31884 1.1807-0.71484 0-1.002-7.7209-1.7341-14.541-1.7171z"/><path d="m1065.3-248.87c-5.92 0.02-7.2697 0.42506-10.84 2.115-2.57 1.22-5.0109 2.2009-5.4309 2.2109-0.42 0-3.3601 2.4504-6.5401 5.4534-3.19 3.003-6.3 5.4608-6.93 5.4608-1.51 0-1.6888 1.4887-0.7688 6.9347 0.38 2.262 1.708 4.3348 4.728 7.3548 4.8 4.798 4.8689 4.8328 7.5889 2.4688 1.11-0.965 2.5719-2.0818 3.2619-2.4688 1.7-0.956 0.8783-1.5914-2.4217-1.8424-3.37-0.256-4.0289-1.1632-2.2789-3.0952 1.06-1.179 2.9107-1.4947 9.3407-1.6287 8.05-0.169 11.323 0.60462 11.323 2.7046 0 1.465 5.4479 2.3401 10.428 1.6581 4.11-0.563 4.6274-1.1523 2.5974-2.8373-1.03-0.857-1.2575-0.80011-1.2575 0.31689 0 1.473-2.1014 1.8928-2.9214 0.57482-0.88-1.427 1.5811-4.2596 3.7011-4.2596 1.13 0 3.2875-0.4254 4.7775-0.9654 2.29-0.826 3.0821-0.75472 4.9421 0.46428 3.33 2.181 3.4427 3.5873 0.5327 6.3083-2.79 2.604-3.2345 4.1872-1.6145 5.8072 1.25 1.252 4.0196 1.3212 4.0196 0.10317 0-0.968 2.0934-3.3089 2.9434-3.3089 0.29 0 2.2206-1.7993 4.3106-3.9943 3.48-3.645 3.7681-4.2657 3.3881-7.2737-0.24-1.855-1.0221-3.6544-1.8121-4.0974-0.77-0.433-2.046-1.5614-2.806-2.5204-3.62-4.546-8.7233-9.0051-10.823-9.4551-1.28-0.27-3.1754-0.84756-4.1954-1.2676-1.03-0.41-6.7109-0.80697-12.641-0.87697-1.25-0.02-2.3606-0.0195-3.3606-0.0295-0.43 0-0.8511-0.0147-1.2411-0.0147zm80.42 2.6457c-1.58 0-2.2509 1.4152-1.6309 3.3752 0.62 1.969 2.5389 2.2 3.2289 0.39795 0.65-1.705-0.218-3.7732-1.598-3.7732zm-72.638 3.6405c2.89-0.014 4.256 0.2783 4.986 0.9433 0.72 0.651 3.0214 1.3038 5.1014 1.4518 3.26 0.231 3.7916 0.54755 4.0416 2.2846 0.27 1.935 0.1601 1.9926-3.5199 1.4886-2.98-0.408-3.9987-0.22409-4.5687 0.79591-0.57 1.018-2.4933 1.3326-8.6433 1.4886-8.4 0.214-10.23-0.0442-13.08-1.9382-1.79-1.189-1.7863-1.1932 0.8237-3.5742 1.43-1.31 3.0169-2.3868 3.4869-2.4098 0.48-0.023 4.0524-0.22306 7.9624-0.42006 1.33-0.068 2.4501-0.10654 3.4101-0.11054z"/><path d="m953.99-255.48c-1.53 0-4.8279 2.5938-5.1179 4.0238-0.19 0.93 0.8405 1.3902 2.5205 1.1202 0.97-0.15 0.73954 4.6322-0.34046 7.0232-0.54 1.177-1.3003 2.1224-1.6803 2.1224-1.17 0-0.79891-2.7101 0.57109-4.2301 1.15-1.27 1.158-1.5035-0.022-2.4835-3.15-2.62-5.9002 6.0755-3.0202 9.5435 1.45 1.755 2.2082 1.7057 6.7982-0.54534 3.54-1.738 3.819-2.1088 4.069-5.6008 0.31-4.4-1.948-10.973-3.778-10.973z"/><path d="m1153.2-263.53c-0.06 0-0.1092 0.0121-0.1592 0.0221-0.64 0.07-0.3621 0.60451 0.3679 2.0045 0.65 1.24 1.1641 2.8611 1.1641 3.6111 0 0.74 0.9403 2.3442 2.0703 3.5742 2.1 2.26 5.7782 2.9618 6.7982 1.3118 2.1-3.4-2.6481-9.381-8.1381-10.251-1-0.15-1.6832-0.27267-2.1032-0.27267z"/><path d="m1148.9-265.91c-0.11-0.01-0.2204-3e-3 -0.3404 7e-3 -0.28 0.01-0.5696 0.0721-0.8896 0.16212-1.51 0.39-1.651 0.90909-1.241 4.4291 0.39 3.27 0.1823 4.2656-1.1477 5.4756-2.12 1.91-2.1604 4.5544-0.06 4.5544 0.88 0 1.7982 0.5486 2.0482 1.2086 0.34 0.87 1.129 1.0422 2.839 0.58219 2.99-0.79999 3.6025-3.2163 0.9225-3.5963-1.64-0.23-1.96-0.85058-2.18-3.9206-0.16-2.22 0.1965-4.394 0.9665-5.564 1.23-1.87 0.7329-3.2684-0.9171-3.3384z"/><path d="m1080.8-283.73c-1.01-0.01-2.1108 0.16797-3.2508 0.53797-4.46 1.47-3.8215 3.755 1.5485 5.505 2.42 0.78 4.7822 1.7445 5.2222 2.1445 2.78 2.57 4.1103-1.805 1.6803-5.505-1.1399-1.75-2.9702-2.6725-5.2002-2.6825z"/><path d="m1096.3-332.24c-3.62-0.02-4.7883 1.2723-5.8483 4.8123-0.54 1.78-1.4711 3.4179-2.0811 3.6479-1.54 0.59-1.3684 4.1654 0.2416 4.7754 0.73 0.28 2.6502 0.50113 4.2502 0.50113 1.61 0 2.736 0.28641 2.526 0.62641-0.22 0.35 2.9025 0.55006 6.9025 0.42006 7.43-0.23 10.018-1.4612 8.9783-4.1711-0.27-0.72 0.4012-1.076 2.0812-1.076 1.61 0 2.5273 0.45018 2.5973 1.2602 0.06 0.7 0.1542 1.7367 0.2142 2.3067 0.07 0.69 1.5697 1.0538 4.2997 1.0538 4.7299 0 6.0788-1.9001 3.2288-4.5101-6.07-5.57-11.228-7.6466-22.838-9.2266-1.85-0.25-3.3423-0.42007-4.5522-0.42007zm11.768 7.8854c1.04-0.01 1.922 0.35064 1.922 0.81064h-0.027c0 1.06-0.8905 1.06-2.5205 0-1.02-0.65-0.904-0.80064 0.626-0.81064z"/><path d="m1107-27.224h58.938v-87.402c-2.9953-0.94283-6.26-1.9847-9.8184-2.5867-4.9-0.83-9.6886-2.1134-10.658-2.8594-2.15-1.653-11.044-19.326-11.664-23.17-0.38-2.3467 0.025-3.2936 2.7346-6.2936 3.03-3.3555 3.206-3.8376 3.196-9.1456 0-6.292-2.8266-15.908-5.3266-18.166-2.57-2.326-5.0904 2.7022-5.0904 10.155 0 6.719-0.5819 7.8219-7.6219 14.577-5.93 5.6896-7.3693 6.9182-10.499 8.7697-2.95 1.7429-4.8109 5.1632-3.8109 7.0895 2.92 5.654 4.4817 12.578 4.6017 20.59 0.12 8.528 0.1 8.5057-2.6304 8.7697-3.25 0.313-3.3083 0.9909-0.7083 6.3599 2.01 4.142 2.0498 7.2442 0.1098 7.2442-2.22 0-3.2936 2.3995-2.1636 4.8565 0.58 1.258 1.4096 4.3706 1.8396 6.9126 0.44 2.542 1.013 5.8183 1.263 7.2663 0.27 1.497 0.08 2.8596-0.4503 3.1836-0.5 0.313-0.939 1.4484-0.939 2.5204s-0.5436 3.28-1.2136 4.886c-1.17 2.819-1.1386 2.9819 1.0214 4.7239 1.24 0.992 2.4527 1.7834 2.7127 1.7834 0.79 0 3.2056 5.3268 3.6956 8.1728 0.28 1.599-0.1976 4.758-1.1476 7.738-0.89 2.78-1.8701 6.4317-2.1801 8.0917-0.39 2.05-1.2309 3.3327-2.5809 3.9427-1.1469 0.52566-1.5273 1.1701-1.6089 1.9898z"/><path d="m986.02-169.11v141.89h13.728c1.0445-12.423 1.9935-15.654 8.9892-23 6.75-7.083 9.8536-10.705 13.454-15.704 0.92-1.285 2.8108-3.5813 4.2008-5.0923 5.79-6.319 7.6569-8.5316 9.1869-10.922 1.85-2.898 5.0038-5.8755 8.0338-7.5685 2.6399-1.476 13.856-12.946 14.546-14.886 0.72-1.999-1.5483-4.0238-4.5083-4.0238-2.34 0-2.4691-0.17284-2.4491-3.5668 0.04-7.44 7.1168-27.553 11.477-32.64 2.13-2.4899 7.8821-3.424 22.322-3.6479 9.26-0.1436 14.52-0.55779 15.15-1.1865 0.53-0.5297 1.4482-0.97278 2.0482-0.97278 1.61 0 6.1228-4.2567 6.1228-5.7777 0-1.313 3.8473-5.1439 5.1673-5.1439 0.39 0 0.7084-0.76673 0.7084-1.7097s0.7215-2.7339 1.5815-3.9869c0.86-1.252 3.0129-4.5597 4.7829-7.3327 1.77-2.774 4.8401-6.4876 6.8201-8.2686 3.6-3.239 3.5959-3.2353 4.1459 0.21372 0.31 1.896 0.8112 3.4342 1.1312 3.4342 0.92 0 2.5535-8.0678 2.5535-12.58 0-3.899 3.8298-14.489 7.0398-19.507 1.67-2.622 3.8768-10.453 3.8768-13.715 0-2.461 0.2035-2.5937 2.5535-2.2477 4.38 0.642 10.72-2.8423 12.74-6.9863 0.71-1.459 0.6061-1.4188-0.7139 0.18424-2.9199 3.529-10.056 4.7412-13.316 2.2772-1.82-1.376-1.8433-1.4249-1.9933-5.8809-0.16-4.642-2.0866-3.076-2.7566 2.233-0.32 2.606-0.2314 4.6744 0.2086 4.8344 1.41 0.504 0.8087 8.4173-1.0213 13.707-2.71 7.84-7.8199 17.706-11.4 22.005-1.76 2.116-4.6578 5.7372-6.4578 8.0622-1.8 2.325-3.9205 4.4233-4.7005 4.6723-0.79 0.25-1.8687 1.4028-2.3887 2.5498-0.52 1.146-1.6236 2.0708-2.4436 2.0708-2.1 0-11.158 5.9087-11.158 7.2737 0 0.62-1.6093 2.1295-3.5693 3.3605-1.97 1.23-3.7731 2.5003-4.0031 2.8373-0.23 0.336-1.928 0.81885-3.778 1.0538-1.85 0.234-4.2097 0.68636-5.2497 1.0244-1.57 0.509-1.889 0.3154-1.889-1.2086 0-3.825-2.7516-7.1374-4.9916-5.9914-1.78 0.915-4.061 0.14188-2.471-0.84012 1.82-1.121 0.2302-1.8322-1.7298-0.78117-0.99 0.529-4.517 1.1724-7.847 1.4444-3.33 0.271-6.3199 0.90695-6.6499 1.415-0.33 0.517-2.5112 0.83795-4.9312 0.73695-2.61-0.11-5.3286 0.33754-6.8586 1.1275-1.61 0.832-3.6601 1.1562-5.5901 0.86223-1.68-0.255-6.0745-0.85688-9.7745-1.3339-3.69-0.477-7.5778-1.2427-8.6378-1.7097s-2.5088-0.86223-3.2288-0.86223-2.4335-0.91273-3.7835-2.0487-2.9568-1.8727-3.5968-1.6287c-0.63 0.243-1.4033 0.0435-1.7133-0.44954-0.3-0.494-1.3289-0.92119-2.2789-0.92119-1.97 0-8.2698-3.3174-8.2698-4.3554 0-0.377-0.41-0.68537-0.95-0.68537-0.58 0-0.4072 0.63597 0.4228 1.555 0.77 0.845 1.3674 2.1478 1.3674 2.8888 0 0.742 0.6985 1.567 1.5485 1.835 2.54 0.806 5.1728 3.7618 5.1728 5.7998 0 1.054 0.99 2.7466 2.18 3.7806 1.19 1.033 2.5502 3.0018 3.0202 4.3628 0.48 1.361 1.2109 2.4688 1.6309 2.4688 0.41 0 0.7304 0.77073 0.7304 1.7097 0 0.93879 0.5675 1.9374 1.2575 2.2035 0.7 0.266 1.2629 0.81801 1.2629 1.2307s-0.5729 0.73695-1.2629 0.73695-1.2575-0.37792-1.2575-0.84012c0-0.4621-0.6093-0.84013-1.3893-0.84013-3.54 0-20.454-8.3802-24.244-12.027-0.50207-0.48234-3.2041-2.7394-5.9086-4.967z"/><path d="m1166-268.71c0.53 5.23 2.2492 6.5578 3.6792 2.8078 1.92-5.05 1.9523-11.946 0.082-17.576-1.97-5.92-2.7215-6.8722-5.9415-7.6422-0.78-0.18-1.4259-0.28741-1.9659-0.28741-2.32 0.02-2.4034 1.8461-0.3734 5.8661 2.52 4.98 3.7993 9.692 4.5193 16.832z"/><path d="m1166-245.96v-4.7165c-0.1712 0.56797-0.2454 1.3539-0.4997 1.5108-0.46 0.28-0.8476 1.9111-0.8676 3.6111-0.02 1.711-0.5332 4.5237-1.1532 6.2567-0.62 1.733-1.0002 3.1542-0.8402 3.1542 0.7494 0 2.0487-4.3148 3.3607-9.8162z"/><path d="m823.46 121.86c1.7921 4.2662 3.6369 8.4926 5.6725 12.536 2.4258 4.8178 5.0194 9.4703 7.7702 13.943 2.7508 4.4728 5.656 8.7624 8.7092 12.86 3.0532 4.0974 6.2549 8.0038 9.5878 11.695 3.3329 3.6917 6.7996 7.1724 10.389 10.428 3.5899 3.2555 7.301 6.283 11.125 9.0719s7.7592 5.3355 11.795 7.6274c4.0361 2.2919 8.1741 4.33 12.399 6.0946 4.2252 1.7645 8.5403 3.2592 12.932 4.4659 4.3916 1.2068 8.8578 2.1229 13.393 2.7415 4.5354 0.61858 9.1375 0.93593 13.794 0.93593h269.91c4.6566 0 9.2586-0.31735 13.794-0.93593 4.5354-0.61857 9.0071-1.5347 13.399-2.7415 4.3916-1.2068 8.7068-2.7014 12.932-4.4659 4.2252-1.7645 8.3578-3.8027 12.394-6.0946 4.0361-2.2919 7.9765-4.8386 11.801-7.6274s7.5354-5.8164 11.125-9.0719 7.0566-6.7362 10.39-10.428c3.3329-3.6917 6.5291-7.598 9.5823-11.695 3.0531-4.0974 5.9638-8.387 8.7146-12.86 2.7191-4.4213 5.2806-9.0224 7.6823-13.781l-1.1147-137.82c-6.18-10.23-11.163-16.852-14.343-19.102-2.36-1.66-5.8075-5.8771-10.088-12.307-11.78-17.712-24.302-28.773-47.302-41.866-2.77-1.578-5.6678-3.2596-6.4578-3.7216-6.7599-3.984-11.29-5.9095-17.83-7.5685-15.99-4.056-27.63-8.8962-34.37-14.304-5.02-4.029-7.7022-5.5566-15.282-8.7476-0.93-0.389-3.7595-1.6336-6.3095-2.7636-0.6954-0.3094-2.5718-0.62467-3.7011-0.98015v87.402h-58.938c-0.1063 1.0672 0.4645 2.4898 2.2404 4.9671 5 6.96 4.7791 13.19-0.6809 18.49-3.82 3.71-3.7914 3.7121-1.9714 7.2221 5.1 9.78-0.2311 17.229-11.581 16.169-5.6-0.52-5.5995-0.51772-5.6395 8.2023-0.02 4.79-0.4869 11.739-1.0269 15.439s-1.4184 11.45-1.9384 17.23c-1.7 18.74-2.4418 25.552-3.2618 29.832-0.44 2.31-1.0618 5.5211-1.3618 7.1411-0.31 1.62-0.9403 3.4169-1.4003 3.9869-1.36 1.71-9.0462 1.312-12.756-0.67799-4.06-2.18-6.4615-1.3501-8.5115 2.9699-1.44 3.05-5.4309 4.3876-5.4309 1.8276 0-0.63-1.1405-2.5833-2.5205-4.3333-1.56-1.95-2.5205-4.1487-2.5205-5.7187 0-1.41-0.4494-3.7861-0.9994-5.306-0.81-2.22-0.7101-4.3026 0.3899-10.583 0.76-4.29 1.5925-9.8776 1.8725-12.418 0.28-2.54 1.5775-6.7087 2.8774-9.2487 1.31-2.54 2.6508-5.8548 2.9708-7.3548 0.33-1.5 1.2289-3.1906 1.9989-3.7806 2.9999-2.27 4.4927-4.6862 3.9427-6.4262-0.31-0.96-0.9497-1.7613-1.4497-1.7613-2.03 0-6.2133 5.6916-7.6933 10.502-0.86 2.78-1.9481 5.801-2.4381 6.721-0.49 0.93-1.2533 2.4405-1.7133 3.3605-0.46 0.93-1.166 2.2578-1.576 2.9478-0.4 0.69-0.96 1.9167-1.23 2.7267s-0.8107 1.4739-1.1807 1.4739c-0.3699 0-1.1995 0.20217-1.8395 0.44217-0.65 0.25-2.1313-0.4139-3.3113-1.4739-4.59-4.11-5.2923-4.44-7.0123-3.67-1.74 0.77-6.2985 6.6317-6.2985 8.0917 0 0.45-0.2915 0.84012-0.6315 0.84012-0.84 0.01-3.5693 4.8457-3.5693 6.3157 0 2.56-3.2501 3.0933-6.5401 1.0833-1.72-1.04-3.2382-2.1799-3.3882-2.5499-0.16-0.36-0.7006-0.678-1.1806-0.678-0.98 0-9.8488-8.463-9.8788-9.433-0.01-0.33-1.6786-4.1328-3.7286-8.4528-2.05-4.33-4.4122-10.389-5.2222-13.449-1.49-5.56-1.4693-5.5512 0.79074-15.041 1.39-5.84 2.5985-14.356 3.1685-22.116 0.51-6.93 1.2603-13.458 1.6803-14.518 0.42-1.05 1.1609-7.2921 1.6309-13.862 0.19829-2.7377 0.47562-3.0794 0.64797-5.1292h-13.728v-141.89c-0.31204-0.25702-0.36438-0.31549-0.68092-0.57482-4.88-4.001-6.069-5.6145-9.769-13.074-2.32-4.676-4.2402-9.4172-4.2502-10.553-0.03-1.978-1.7178-10.089-2.9378-14.054-0.75999-2.467 1.6873-2.6162 2.9873-0.18424 1.02 1.909 6.8827 5.8514 8.6927 5.8514 2.13 0 1.9655-1.9604-0.9445-11.135-2.92-9.185-4.1155-10.605-5.9855-7.1116-1.14 2.127-3.2199 3.1679-10.45 5.2029-4.77 1.34-5.0101 1.316-8.7201-0.47902-4.04-1.955-8.6597-5.9605-8.6597-7.5095 0-0.51-1.0742-2.5044-2.3942-4.4364-1.33-1.932-4.7195-8.1414-7.5395-13.788-4.71-9.43-5.1465-10.772-5.3265-16.382-0.25-7.51 0.98812-13.267 3.3881-15.837 0.99-1.07 1.7792-2.1593 1.7792-2.4393 0-0.85 5.4081-2.5499 8.1381-2.5499 2.32 0 6.9904 3.3513 6.9904 5.0113 0 0.32 1.4938 1.3877 3.2838 2.3877 1.84 1.04 3.6877 2.9428 4.2777 4.3628 1.86 4.48 3.4614 3.2033 2.9214-2.3067-0.26-2.66-0.6182-8.1439-0.8182-12.204-0.19-4.07-0.56271-7.7433-0.81271-8.1433-1.06-1.71-0.76248-32.901 0.30752-33.561 0.83999-0.52 0.87473-2.0484 0.16473-7.1484-1.13-8.12-1.1724-13.691-0.0824-14.371 0.46-0.28 0.84017-1.2519 0.84017-2.1519 0-0.89-0.38017-1.6287-0.84017-1.6287s-0.84016-1.7964-0.84016-4.0164c0-2.21-0.40704-4.4497-0.91704-4.9597-0.67-0.67-0.46475-1.3836 0.78525-2.6236 3.12-3.12 4.2544-5.5788 4.4644-9.6688 0.11-2.22 0.52057-4.2038 0.90057-4.4438 0.37-0.23 0.64797-1.3704 0.64797-2.5204 0-4.41 10.34-14.614 14.81-14.614 1.94 0 9.0371-3.5256 10.977-5.4756 2.69-2.68 8.4733-6.1448 12.053-7.2148 2.07-0.60999 5.3808-1.9815 7.3308-3.0215 3.29-1.73 4.0693-1.8086 10.499-1.0686 3.83 0.44 10.851 0.80065 15.601 0.81065 5.75 0 9.636 0.42019 11.636 1.2602 3.51 1.47 8.5633 0.91874 12.443-1.3412 1.4-0.81 3.9874-1.7287 5.7273-2.0487 1.74-0.31 3.3743-0.90177 3.6243-1.3118 0.26-0.41 1.4572-0.74906 2.7072-0.75906 1.24-0.01 3.9206-0.77025 5.9306-1.6802s4.4683-1.4802 5.4583-1.2602c1 0.22 6.3321 0.56117 11.872 0.78117 11.2 0.45 16.74 1.7881 21.01 5.0481 4.25 3.24 8.6569 8.0896 10.137 11.18 0.72 1.51 1.6632 2.7267 2.1032 2.7267s0.7907 0.3538 0.7907 0.7738 1.3178 2.7218 2.9378 5.1218c1.62 2.4 2.9434 5.183 2.9434 6.183 0 1.01 0.5157 2.5905 1.1257 3.5005 0.61 0.90999 1.5826 3.9215 2.1526 6.6915 0.57 2.78 1.5998 6.9388 2.2898 9.2488 0.69 2.31 1.3611 5.9012 1.5211 7.9812s0.6777 4.7309 1.1477 5.8809c3.67 8.95 5.2108 16.372 6.1008 29.522 0.51 7.57 1.4596 15.967 2.1196 18.667 0.66 2.69 1.1916 8.2682 1.1916 12.388 0 5.85 0.2706 7.4948 1.1806 7.4948 1.5 0 2.1801-1.8293 2.1801-5.8293 0-8.51 2.1987-10.96 8.3687-9.3003 2.31 0.63 3.8411 1.817 5.6011 4.407 2.4 3.54 2.4169 3.6933 2.2569 15.063-0.17 11.76-0.5975 13.71-4.3875 19.61-0.89 1.39-1.6404 3.5354-1.6804 4.7754-0.014 0.56913-0.2776 0.80046-0.4228 1.2823v4.7165c0.1762-0.73892 0.2715-0.50329 0.4503-1.3191 1.07-4.93 2.6497-9.276 4.2997-11.946 2.59-4.19 2.6097-4.3119 2.6797-16.412 0.08-12.19 0.07-12.187-2.5205-16.397-1.67-2.72-3.4455-4.4592-5.0355-4.9892-1.35-0.44-2.5792-0.88278-2.7292-0.97278-0.15-0.08 0.1186-0.88184 0.5986-1.7318 2.14-3.81 6.8311-13.987 6.8311-14.857 2.64-6.91 3.7872-4.9196 5.2771-14.85 0.59-3.91-0.3085-6.5703 0.6315-9.0203 0.66-1.74 1.2564-6.7127 1.3564-11.143 0.27-16.56-1.3472-20.812 1.0928-35.742 1.54-9.43 1.1284-16.984-2.1416-22.764-5.09-3.88-7.8661-8.1415-8.7861-13.471-1.41-8.17-1.5905-8.6092-4.7005-12.049-3.68-4.07-12.582-10.493-15.452-11.143-0.7199-0.16-1.7177-0.40589-2.6577-0.65589-0.75-0.75-1.4599-1.556-2.5699-1.636-1.16-0.64-2.3006-1.374-3.0806-2.454-0.02-0.1-0.04-0.19478-0.06-0.29478-0.8-3.3-3.9934-15.809-5.1234-20.089-2.03-7.69-10.406-20.021-32.426-24.68-1.94-1.07-7.4129-3.5718-10.093-4.7018-1.29-0.68-3.327-1.4865-4.437-1.4665-1.43 0.02-3.0301 0.35858-4.6401 1.0686l-7.3034 1.7687c-0.44-0.53-1.7872-1.5204-3.6572-2.6604-3.84-2.34-6.6584-3.4152-10.098-3.3752v-7e-3c-0.22 0-0.4519 0.0121-0.6919 0.0221-2.25 0.12-4.7883 0.70973-8.0283 1.7097-6.4 1.96-15.761 2.3912-20.071 0.92119-0.6-0.21-3.4191 0.58184-6.249 1.7318-2.83 1.15-6.1134 2.0808-7.3034 2.0708-1.52 0-3.1807 1.13-5.5407 3.81-3.36 3.83-3.3396 3.8299-7.8196 2.9699-3.9-0.76-5.0183-0.64565-8.5884 0.88434-0.96 0.41-1.9111 0.89336-2.7511 1.3634-0.81 0.19-1.6197 0.40063-2.3997 0.67063-1.77 1.14-2.739 3.1507-3.789 4.9007-0.35 0.62-0.76259 1.1792-1.2026 1.7392-0.54 0.16-1.397 0.56019-2.537 1.2602-1.56 0.95-3.9824 1.7318-5.3924 1.7318-1.83 0.01-3.3909 0.85991-5.4309 2.9699-0.88 0.9-1.7662 1.6288-2.6962 2.1888-0.18-0.07-0.37109-0.12266-0.57109-0.13266-2.67-0.45-5.8032 0.22986-7.4132 2.5499-1.76 0.51-3.1553 1.7431-4.1953 3.2131-3.01 1.98-8.0895 6.0258-8.4895 7.0158-0.16 0.38-1.5202 0.68537-3.0202 0.68537-3.55 0-7.2635 4.1098-14.793 16.39-6.04 9.86-7.2867 12.415-8.3467 17.215-0.57 2.55-1.3702 6.0017-1.7902 7.6717s-0.77976 5.923-0.77976 9.433c0 5.13-0.30403 6.668-1.554 7.878-0.87 0.83-3.3089 4.5196-5.4089 8.2096-4.36 7.64-4.3992 8.1496-3.6792 32.78 0.31999 10.96 0.65737 13.41 2.5974 18.77 1.87 5.18 2.1503 6.9927 1.6803 11.143-0.32 2.85-0.20897 5.9363 0.29103 7.2663 3.28 8.76 3.8133 11.892 3.8933 22.912 0.08 11.34 0.0887 11.343 4.5687 20.163 4.47 8.82 4.4798 8.8295 3.9098 18.1-0.58 9.26-0.58913 9.2574 6.3809 22.683 3.84 7.385 7.9769 16.261 9.1869 19.743 1.44 4.124 3.7519 8.3762 6.6719 12.189 6.73 8.784 7.6483 9.6237 11.158 10.185 1.78 0.284 3.5427 1.147 3.9427 1.894 0.56 1.045 0.60982 14.401 0.10982 25.027-0.03 0.542-2.0419 2.2426-4.4919 3.7806-2.45 1.537-7.3582 5.9987-10.878 9.9267-3.52 3.929-10.743 11.447-16.073 16.699-9.6 9.467-9.7089 9.532-12.339 8.615-3.62-1.264-12.958 0.77229-26.858 5.8293-4.86 1.765-10.533 3.7749-12.613 4.4659-6.95 2.31-36.17 14.742-47.56 20.244l-11.241 5.4387zm209.63-621.81c0.46 0.01 0.9387 0.0337 1.4387 0.0737-0.39-0.02-0.7807-0.0342-1.1807-0.0442-0.09-0.01-0.168-0.0195-0.258-0.0295zm58.597 1.5402c0.19 0.01 0.3278 0.0242 0.4778 0.0442 0.23 0.18 0.4628 0.37956 0.7028 0.58956-0.37-0.25-0.7606-0.47378-1.1806-0.63378zm11.971 5.3945c0.29 0.15 0.629 0.31902 0.939 0.47902-0.28-0.09-0.5602-0.1853-0.8402-0.2653-0.02-0.07-0.049-0.13372-0.099-0.21372zm-119.21 14.724c-0.32 0.26-0.63253 0.49904-0.92253 0.61904-0.09-0.03-0.18555-0.0563-0.28555-0.0663 0.42-0.17 0.82808-0.35272 1.2081-0.55272zm-11.389 5.3945c-0.13 0.2-0.22005 0.41589-0.28005 0.65589-0.12-0.03-0.25341-0.0874-0.37341-0.1474 0.22-0.16 0.43346-0.32849 0.65346-0.50849zm160.03 3.7069c0.12 0 0.2305 0.15165 0.3405 0.47165-0.18-0.2-0.4464-0.25897-0.6864-0.19897 0.13-0.18 0.2359-0.27268 0.3459-0.27268zm-38.258 121.29c-0.45 0-0.8924-3e-3 -1.3124 7e-3 -2.02 0.04-3.6366 0.20271-3.9866 0.55271-0.32 0.32-1.4042 0.7196-2.3942 0.8696-5.7 0.87-5.0051 7.7984 1.0049 10.258h0.027c1.16 0.47 3.0179 0.68901 4.1679 0.47901 1.16-0.21 5.3228-1.0524 9.2528-1.8424 10.51-2.11 28.571-1.6552 28.571 0.71484 0 0.41 1.1305 0.64534 2.5205 0.54534 3.41-0.26 3.1685-1.1777-0.6315-2.3877-1.74-0.55-4.85-1.8683-6.93-2.9183-7.49-3.78-9.7511-4.4559-14.711-4.4659-2.78 0-6.1078-0.40382-7.4078-0.91382-1.43-0.55-5.031-0.86908-8.171-0.89908zm-54.589 1.7392c-0.97 0.01-1.9233 0.37595-2.9433 1.076-1.06 0.74-4.219 1.1491-8.819 1.1791-5.67 0.03-8.2576 0.48086-12.548 2.2109-2.98 1.2-6.2514 2.1814-7.2814 2.1814s-2.9502 0.8803-4.2502 1.9603c-1.31 1.09-3.1491 2.3983-4.0691 2.9183-1.98 1.11-1.8793 1.1223 17.781 1.0023 16.93-0.1 24.65 2.5765 24.65 8.5265 0 1.57 0.4375 2.3951 1.2575 2.3951 0.84 0 1.2575 0.84037 1.2575 2.5204 0 1.64-0.4071 2.5204-1.1971 2.5204-0.67 0-1.8927-1.1304-2.7127-2.5204-0.82-1.38-1.945-2.5204-2.515-2.5204s-2.0612-0.94032-3.3112-2.1003c-2.18-2.02-4.5313-2.7792-4.5413-1.4592-0.01 0.34-3.3128 0.72486-7.3528 0.85486-4.41 0.14-9.7095 0.92977-13.24 1.9898-5.29 1.6-6.4481 2.3933-11.548 7.7233-3.12 3.27-5.6505 6.2183-5.6505 6.5883 0.0445 1.161 4.8501-0.18743 9.2199-2.6162 1.38-0.77 4.752-1.1233 10.082-1.0833 9.89 0.09 13.448-0.84736 13.448-3.5374 0-1.06 0.5924-2.4315 1.3124-3.0215 1.09-0.91 1.6493-0.66134 3.5693 1.6287 2.07 2.47 2.7889 2.7431 7.9789 3.0731 4.3699 0.28 5.8002 0.0846 6.1502-0.82539 0.25-0.65 1.5678-1.6261 2.9378-2.1961 6.65-2.75 8.294-17.143 2.504-22.013-0.96-0.8-1.7627-1.2212-1.7627-0.92119 0 0.31-1.3806-0.82038-3.0806-2.5204-2.04-2.04-3.6965-3.0241-5.3265-3.0141zm-123.82 6.7357c0.05 0 0.11023 9e-3 0.17023 0.0295-0.03 0-0.0469 5e-3 -0.0769 0.0147-0.23999 0.14-0.37282 0.33009-0.42282 0.56009-0.04-0.36 0.0306-0.54956 0.23063-0.58956 0.03 0 0.0588-0.0147 0.0988-0.0147zm147.72 55.485c-0.71-0.03-2.1502 0.74322-5.2002 0.38322-5.06-0.59-11.971 1.8306-11.971 4.2006 0 0.65-0.3911 1.1791-0.8511 1.1791-1.38 0-0.9374 5.2162 0.5326 6.2862 1.8 1.32 8.5011-0.32985 10.351-2.5498 0.73-0.88 2.0873-3.4064 4.2173-4.0164 2.12-0.61 7.2113-5.3329 2.9213-5.4829zm-26.968 0.2432c-0.29 0.04-0.6438 0.23639-1.1038 0.48639-2.12 1.13-2.9679 6.6847-1.5979 10.465 1.24 3.44 2.2614 3.7018 4.4314 1.1718 1.41-1.65 1.4578-2.242 0.4778-6.522-1.04-4.52-1.3475-5.7008-2.2075-5.6008zm-100.57 2.174c0.54 0.67 1.2528 1.2181 2.0428 1.5181-0.69-0.17-1.2798-0.53068-1.7298-1.0907-0.12-0.14-0.233-0.28744-0.313-0.42744zm-7.3308 6.1314c0.18 0.45 0.3393 0.86597 0.4393 1.216 0.0454 0.15433 0.0809 0.29695 0.10983 0.4348-0.16-0.56-0.34913-1.1108-0.54913-1.6508zm11.729 5.4313c-0.09 0-0.16809-3e-3 -0.25809 7e-3 -3.07 0.22-5.8906 2.6684-6.8806 6.5884-0.8 3.21 0.12836 12.094 1.6584 15.734 1.99 4.753 3.0422 3.0345 3.0422-4.9155 0-3.88 0.43254-7.9377 0.92254-9.0277 1.3-2.85 3.7968-4.2215 5.7768-3.1615 3.81 2.04 3.5195-1.4111-0.34046-4.0311-1.25-0.86-2.6108-1.2339-3.9208-1.1939z"/></g></svg>
