<?xml version="1.0" encoding="UTF-8"?>
<svg version="1.1" viewBox="0 0 448 512" xml:space="preserve" xmlns="http://www.w3.org/2000/svg">
 <!--! Font Awesome Pro 6.2.1 by @fontawesome - https://fontawesome.com License - https://fontawesome.com/license (Commercial License) Copyright 2022 Fonticons, Inc. --><path d="m48 32c-26.5 0-48 21.5-48 48v96c0 26.5 21.5 48 48 48h96c26.5 0 48-21.5 48-48v-96c0-26.5-21.5-48-48-48zm80 64v64h-64v-64zm-80 192c-26.5 0-48 21.5-48 48v96c0 26.5 21.5 48 48 48h96c26.5 0 48-21.5 48-48v-96c0-26.5-21.5-48-48-48zm80 64v64h-64v-64zm128-272v96c0 26.5 21.5 48 48 48h96c26.5 0 48-21.5 48-48v-96c0-26.5-21.5-48-48-48h-96c-26.5 0-48 21.5-48 48zm64 16h64v64h-64z" fill="#fbfbfb"/><g transform="matrix(.37885 0 0 .26503 -53.129 423.22)" fill="#845ee9"><path d="m1062.4 181.86h0.1592c1.53 0.09 3.7835 2.0458 3.7835 3.4858 0 0.59 0.4688 1.2439 1.0488 1.4739 0.79 0.32 0.7414 0.64914-0.2086 1.3191-0.85 0.6-0.9242 0.91119-0.2142 0.92119 1.3 0.02 1.4218 3.9118 0.1318 4.7018-0.57 0.36-0.7917 2.0154-0.5217 4.3554 0.39 3.44 0.19 4.0304-2.18 6.1904-4.3 3.93-4.77 3.1583-4.75-7.9517 0.01-9.64 0.6719-13.785 2.3119-14.415 0.13-0.05 0.2793-0.0811 0.4393-0.0811z"/><path d="m1066.2 24.48c-2.53 0.09-3.9686 2.0519-4.0086 5.5419-0.02 2.28 0.287 2.7267 1.867 2.7267 1.45 0 2.2917-0.92691 3.6517-3.9869 1.76-3.99 1.7616-3.9822-0.7084-4.2522-0.19-0.02-0.3691-0.01948-0.5491-0.02948z"/><path d="m1068.8-4.1207c-0.1 0-0.2085 0.00474-0.3185 0.014739-0.57 0.03-1.2727 0.129-2.0427 0.339-2.07 0.54-2.1195 0.66071-0.6095 1.2307h0.033c0.92 0.34 2.4177 0.23681 3.3277-0.24319 1.54-0.8 1.0901-1.3613-0.3899-1.3413z"/><path d="m1084.9-10.097c-2.34 0-2.2382 2.272 0.1318 2.992 1.04 0.32 2.6722 1.2603 3.6022 2.1003 0.92 0.85 2.618 1.9056 3.778 2.3656 2.59 1.03 6.6994 1.1953 6.6994 0.2653 0-2.07-10.401-7.7233-14.211-7.7233z"/><path d="m1080.8-40.106c-0.28 0.01-0.5482 0.01211-0.8182 0.02211-4.6599 0.13-7.3802 1.3553-7.3802 3.5153 0 1.42 0.5216 1.6676 3.3716 1.5476 1.85-0.08 5.3178-0.21689 7.6878-0.31689 2.88-0.12 5.5388 0.40286 7.9788 1.5329 2.01 0.93 4.5894 2.0746 5.7494 2.5646h0.033c2.28 0.94 5.8592 1.2632 5.8592 0.52324 0-0.25-0.5934-1.6215-1.3234-3.0215-1.67-3.24-4.7395-4.4914-14.47-5.8514-2.5-0.35-4.7484-0.51587-6.6884-0.51587z"/><path d="m1070.8-73.969c-1.57 0-2.872 0.37812-2.872 0.84012 0 0.462-0.6461 0.84012-1.4661 0.84012-1.51 0-8.5829 6.3267-8.5829 7.6717 0.041 1.5984 5.0863 0.37712 11.729-2.8667 5.55-2.705 6.2316-6.4852 1.1916-6.4852z"/><path d="m1081.5-81.397c-0.34-2e-3 -0.7208 0.17561-1.0708 0.5306-0.74 0.737-0.7017 1.2847 0.1483 2.3067 1.03 1.236 1.1854 1.2274 1.9054-0.05159 0.77-1.387 0.037-2.7787-0.9829-2.7857z"/><path d="m1079.5-112.49c-5.5 8e-3 -11.449 2.4965-11.449 5.9325h-0.033c0 1.321 0.4948 1.4554 3.5748 1.0244 1.97-0.274 4.6885-0.83918 6.0185-1.2602s4.45-0.52783 6.93-0.23583c5.48 0.644 6.0614-0.75904 1.5815-3.81-1.71-1.16-4.1225-1.6548-6.6225-1.6508z"/><path d="m1064.4-199.08c-0.45 1e-3 -0.9109-6.3e-4 -1.3509 7e-3 -2.37 0.043-4.5667 0.18455-6.1667 0.44954-3.87 0.639-4.2802 3.0029-0.8402 4.8049 4.08 2.14 19.356 0.64223 20.246-1.9898 0.15-0.458 0.8116-0.84013 1.4716-0.84013 0.65 0 1.1807-0.31884 1.1807-0.71484 0-1.002-7.7209-1.7341-14.541-1.7171z"/><path d="m1065.3-248.87c-5.92 0.02-7.2697 0.42506-10.84 2.115-2.57 1.22-5.0109 2.2009-5.4309 2.2109-0.42 0-3.3601 2.4504-6.5401 5.4534-3.19 3.003-6.3 5.4608-6.93 5.4608-1.51 0-1.6888 1.4887-0.7688 6.9347 0.38 2.262 1.708 4.3348 4.728 7.3548 4.8 4.798 4.8689 4.8328 7.5889 2.4688 1.11-0.965 2.5719-2.0818 3.2619-2.4688 1.7-0.956 0.8783-1.5914-2.4217-1.8424-3.37-0.256-4.0289-1.1632-2.2789-3.0952 1.06-1.179 2.9107-1.4947 9.3407-1.6287 8.05-0.169 11.323 0.60462 11.323 2.7046 0 1.465 5.4479 2.3401 10.428 1.6581 4.11-0.563 4.6274-1.1523 2.5974-2.8373-1.03-0.857-1.2575-0.80011-1.2575 0.31689 0 1.473-2.1014 1.8928-2.9214 0.57482-0.88-1.427 1.5811-4.2596 3.7011-4.2596 1.13 0 3.2875-0.4254 4.7775-0.9654 2.29-0.826 3.0821-0.75472 4.9421 0.46428 3.33 2.181 3.4427 3.5873 0.5327 6.3083-2.79 2.604-3.2345 4.1872-1.6145 5.8072 1.25 1.252 4.0196 1.3212 4.0196 0.10317 0-0.968 2.0934-3.3089 2.9434-3.3089 0.29 0 2.2206-1.7993 4.3106-3.9943 3.48-3.645 3.7681-4.2657 3.3881-7.2737-0.24-1.855-1.0221-3.6544-1.8121-4.0974-0.77-0.433-2.046-1.5614-2.806-2.5204-3.62-4.546-8.7233-9.0051-10.823-9.4551-1.28-0.27-3.1754-0.84756-4.1954-1.2676-1.03-0.41-6.7109-0.80697-12.641-0.87697-1.25-0.02-2.3606-0.0195-3.3606-0.0295-0.43 0-0.8511-0.0147-1.2411-0.0147zm80.42 2.6457c-1.58 0-2.2509 1.4152-1.6309 3.3752 0.62 1.969 2.5389 2.2 3.2289 0.39795 0.65-1.705-0.218-3.7732-1.598-3.7732zm-72.638 3.6405c2.89-0.014 4.256 0.2783 4.986 0.9433 0.72 0.651 3.0214 1.3038 5.1014 1.4518 3.26 0.231 3.7916 0.54755 4.0416 2.2846 0.27 1.935 0.1601 1.9926-3.5199 1.4886-2.98-0.408-3.9987-0.22409-4.5687 0.79591-0.57 1.018-2.4933 1.3326-8.6433 1.4886-8.4 0.214-10.23-0.0442-13.08-1.9382-1.79-1.189-1.7863-1.1932 0.8237-3.5742 1.43-1.31 3.0169-2.3868 3.4869-2.4098 0.48-0.023 4.0524-0.22306 7.9624-0.42006 1.33-0.068 2.4501-0.10654 3.4101-0.11054z"/><path d="m953.99-255.48c-1.53 0-4.8279 2.5938-5.1179 4.0238-0.19 0.93 0.8405 1.3902 2.5205 1.1202 0.97-0.15 0.73954 4.6322-0.34046 7.0232-0.54 1.177-1.3003 2.1224-1.6803 2.1224-1.17 0-0.79891-2.7101 0.57109-4.2301 1.15-1.27 1.158-1.5035-0.022-2.4835-3.15-2.62-5.9002 6.0755-3.0202 9.5435 1.45 1.755 2.2082 1.7057 6.7982-0.54534 3.54-1.738 3.819-2.1088 4.069-5.6008 0.31-4.4-1.948-10.973-3.778-10.973z"/><path d="m1153.2-263.53c-0.06 0-0.1092 0.0121-0.1592 0.0221-0.64 0.07-0.3621 0.60451 0.3679 2.0045 0.65 1.24 1.1641 2.8611 1.1641 3.6111 0 0.74 0.9403 2.3442 2.0703 3.5742 2.1 2.26 5.7782 2.9618 6.7982 1.3118 2.1-3.4-2.6481-9.381-8.1381-10.251-1-0.15-1.6832-0.27267-2.1032-0.27267z"/><path d="m1148.9-265.91c-0.11-0.01-0.2204-3e-3 -0.3404 7e-3 -0.28 0.01-0.5696 0.0721-0.8896 0.16212-1.51 0.39-1.651 0.90909-1.241 4.4291 0.39 3.27 0.1823 4.2656-1.1477 5.4756-2.12 1.91-2.1604 4.5544-0.06 4.5544 0.88 0 1.7982 0.5486 2.0482 1.2086 0.34 0.87 1.129 1.0422 2.839 0.58219 2.99-0.79999 3.6025-3.2163 0.9225-3.5963-1.64-0.23-1.96-0.85058-2.18-3.9206-0.16-2.22 0.1965-4.394 0.9665-5.564 1.23-1.87 0.7329-3.2684-0.9171-3.3384z"/><path d="m1080.8-283.73c-1.01-0.01-2.1108 0.16797-3.2508 0.53797-4.46 1.47-3.8215 3.755 1.5485 5.505 2.42 0.78 4.7822 1.7445 5.2222 2.1445 2.78 2.57 4.1103-1.805 1.6803-5.505-1.1399-1.75-2.9702-2.6725-5.2002-2.6825z"/><path d="m1096.3-332.24c-3.62-0.02-4.7883 1.2723-5.8483 4.8123-0.54 1.78-1.4711 3.4179-2.0811 3.6479-1.54 0.59-1.3684 4.1654 0.2416 4.7754 0.73 0.28 2.6502 0.50113 4.2502 0.50113 1.61 0 2.736 0.28641 2.526 0.62641-0.22 0.35 2.9025 0.55006 6.9025 0.42006 7.43-0.23 10.018-1.4612 8.9783-4.1711-0.27-0.72 0.4012-1.076 2.0812-1.076 1.61 0 2.5273 0.45018 2.5973 1.2602 0.06 0.7 0.1542 1.7367 0.2142 2.3067 0.07 0.69 1.5697 1.0538 4.2997 1.0538 4.7299 0 6.0788-1.9001 3.2288-4.5101-6.07-5.57-11.228-7.6466-22.838-9.2266-1.85-0.25-3.3423-0.42007-4.5522-0.42007zm11.768 7.8854c1.04-0.01 1.922 0.35064 1.922 0.81064h-0.027c0 1.06-0.8905 1.06-2.5205 0-1.02-0.65-0.904-0.80064 0.626-0.81064z"/><path d="m1061.7-503.95c-0.22 0-0.4508 0.01211-0.6908 0.02211-2.25 0.12-4.7921 0.70973-8.0321 1.7097-6.4 1.96-15.76 2.3912-20.07 0.92119-0.6-0.21-3.4184 0.58184-6.2483 1.7318-2.83 1.15-6.1099 2.0808-7.2999 2.0708-1.52 0-3.182 1.13-5.542 3.81-3.36 3.83-3.3407 3.8299-7.8207 2.9699-3.9-0.76-5.0188-0.64565-8.5888 0.88434-0.96 0.41-1.913 0.89336-2.753 1.3634-0.81 0.19-1.6172 0.40063-2.3972 0.67063-1.77 1.14-2.7392 3.1507-3.7892 4.9007-0.35 0.62-0.7612 1.1792-1.2012 1.7392-0.54 0.16-1.3964 0.56019-2.5364 1.2602-1.56 0.94999-3.9825 1.7318-5.3925 1.7318-1.83 0.01-3.3938 0.85992-5.4337 2.9699-0.88 0.9-1.7662 1.6287-2.6962 2.1887-0.18-0.07-0.37225-0.12265-0.57225-0.13265-2.67-0.45-5.8034 0.22986-7.4134 2.5498-1.76 0.51-3.1513 1.7431-4.1913 3.2131-3.01 1.98-8.0909 6.0258-8.4909 7.0158-0.16 0.38-1.521 0.68536-3.021 0.68536-3.55 0-7.2607 4.1098-14.791 16.39-6.04 9.86-7.2865 12.415-8.3465 17.215-0.57 2.55-1.3741 6.0017-1.7941 7.6717-0.42 1.67-0.77846 5.923-0.77846 9.433 0 5.13-0.30176 6.668-1.5518 7.878-0.87 0.82999-3.3131 4.5196-5.4131 8.2096-4.36 7.64-4.3958 8.1496-3.6758 32.78 0.31999 10.96 0.65831 13.41 2.5983 18.77 1.87 5.18 2.1506 6.9927 1.6806 11.143-0.32 2.85-0.2113 5.9363 0.2887 7.2663 3.28 8.76 3.8123 11.892 3.8923 22.912 0.08 11.34 0.08761 11.343 4.5676 20.163 4.47 8.82 4.4829 8.8296 3.9129 18.1-0.58 9.26-0.5928 9.2574 6.3772 22.683 3.84 7.385 7.982 16.261 9.192 19.743 1.44 4.124 3.751 8.3762 6.671 12.189 6.73 8.784 7.6462 9.6237 11.156 10.185 1.78 0.284 3.5438 1.147 3.9438 1.894 0.56 1.045 0.60826 14.401 0.10826 25.027-0.03 0.542-2.0403 2.2426-4.4903 3.7806-2.45 1.537-7.3578 5.9987-10.878 9.9267-3.52 3.929-10.744 11.447-16.074 16.699-9.6 9.467-9.7068 9.532-12.337 8.615-3.62-1.264-12.959 0.77229-26.859 5.8293-4.86 1.765-10.535 3.7749-12.615 4.4659-6.95 2.31-36.168 14.742-47.558 20.244l-11.239 5.4387v216.88c1.7921 4.2662 3.6353 8.4926 5.6709 12.536 2.4258 4.8178 5.0183 9.4703 7.7691 13.943s5.6543 8.7624 8.7074 12.86c3.0532 4.0974 6.2561 8.0038 9.589 11.695s6.7981 7.1724 10.388 10.428c3.5899 3.2555 7.3009 6.283 11.125 9.0719 3.8243 2.7889 7.7594 5.3355 11.795 7.6274 4.0361 2.2919 8.1786 4.33 12.404 6.0946s8.538 3.2592 12.93 4.4659c4.3916 1.2068 8.8582 2.1229 13.394 2.7415 4.5354 0.61858 9.1391 0.93593 13.796 0.93593h269.9c4.6566 0 9.2602-0.31735 13.796-0.93593 4.5354-0.61857 9.0072-1.5347 13.399-2.7415 4.3916-1.2068 8.7045-2.7014 12.93-4.4659 4.2252-1.7645 8.3575-3.8027 12.394-6.0946 4.0361-2.2919 7.9763-4.8386 11.801-7.6274s7.5354-5.8164 11.125-9.0719c3.5899-3.2555 7.0603-6.7362 10.393-10.428s6.5254-7.598 9.5786-11.695c3.0531-4.0974 5.9669-8.387 8.7177-12.86 2.7191-4.4213 5.2798-9.0224 7.6815-13.781l-1.1136-137.82c-6.18-10.23-11.162-16.852-14.342-19.102-2.36-1.66-5.809-5.8771-10.089-12.307-11.78-17.712-24.3-28.773-47.3-41.866-2.77-1.578-5.6696-3.2596-6.4596-3.7216-6.7599-3.984-11.292-5.9095-17.832-7.5685-15.99-4.056-27.626-8.8962-34.366-14.304-5.02-4.029-7.7057-5.5566-15.286-8.7476-0.93-0.389-3.7601-1.6336-6.3101-2.7636-0.6954-0.3094-2.5723-0.62466-3.7016-0.98014-2.9953-0.94283-6.2574-1.9847-9.8158-2.5867-4.8999-0.83-9.6913-2.1134-10.661-2.8594-2.15-1.653-11.041-19.326-11.661-23.17-0.38-2.3467 0.0279-3.2936 2.7375-6.2936 3.0299-3.3555 3.2011-3.8376 3.1911-9.1456 0-6.292-2.8255-15.908-5.3255-18.166-2.57-2.326-5.0883 2.7022-5.0883 10.155 0 6.719-0.5848 7.8219-7.6248 14.577-5.93 5.6896-7.3663 6.9182-10.496 8.7697-2.95 1.7429-4.8098 5.1632-3.8098 7.0895 2.92 5.654 4.4786 12.578 4.5986 20.59 0.12 8.528 0.1012 8.5057-2.6292 8.7697-3.25 0.313-3.3063 0.99091-0.7063 6.3599 2.01 4.142 2.0482 7.2442 0.1082 7.2442-2.22 0-3.2952 2.3995-2.1652 4.8565 0.58 1.258 1.4105 4.3706 1.8405 6.9126 0.44 2.542 1.013 5.8183 1.263 7.2663 0.27 1.497 0.0818 2.8596-0.4485 3.1836-0.5 0.313-0.9383 1.4484-0.9383 2.5204s-0.5466 3.28-1.2166 4.886c-1.17 2.819-1.1393 2.9819 1.0207 4.7239 1.24 0.992 2.4517 1.7834 2.7117 1.7834 0.79 0 3.2064 5.3268 3.6964 8.1728 0.28 1.599-0.1945 4.758-1.1445 7.738-0.89 2.78-1.8707 6.4317-2.1807 8.0917-0.39 2.05-1.2328 3.3327-2.5828 3.9427-1.1469 0.52566-1.5269 1.1701-1.6085 1.9898-0.1063 1.0672 0.4667 2.4898 2.2426 4.9671 5 6.96 4.7795 13.19-0.6805 18.49-3.82 3.71-3.7945 3.7121-1.9745 7.2221 5.1 9.78-0.2289 17.229-11.579 16.169-5.6-0.52-5.6-0.51771-5.64 8.2023-0.02 4.79-0.4859 11.739-1.0259 15.439-0.54 3.7-1.4184 11.45-1.9384 17.23-1.7 18.74-2.4434 25.552-3.2634 29.832-0.44 2.31-1.061 5.5211-1.361 7.1411-0.31 1.62-0.9422 3.4169-1.4022 3.9869-1.36 1.71-9.0444 1.312-12.754-0.678-4.06-2.18-6.4615-1.3501-8.5115 2.9699-1.44 3.05-5.4337 4.3876-5.4337 1.8276 0-0.63-1.1358-2.5833-2.5158-4.3333-1.56-1.95-2.521-4.1487-2.521-5.7187 0-1.41-0.4501-3.7861-1.0001-5.3061-0.81-2.22-0.7134-4.3026 0.3866-10.583 0.76-4.29 1.5966-9.8776 1.8766-12.418 0.28-2.54 1.5767-6.7087 2.8766-9.2487 1.31-2.54 2.6495-5.8548 2.9695-7.3548 0.33-1.5 1.2303-3.1906 2.0003-3.7806 2.9999-2.27 4.4887-4.6862 3.9387-6.4262-0.31-0.96-0.9487-1.7613-1.4487-1.7613-2.03 0-6.2118 5.6916-7.6917 10.502-0.86 2.78-1.9485 5.801-2.4385 6.721-0.49 0.93-1.2516 2.4405-1.7116 3.3605-0.46 0.93-1.1675 2.2578-1.5775 2.9478-0.4 0.69-0.9622 1.9167-1.2322 2.7267-0.27 0.81-0.8106 1.4739-1.1806 1.4739-0.3699 0-1.1953 0.20217-1.8353 0.44217-0.65 0.25-2.1349-0.4139-3.3149-1.4739-4.59-4.11-5.2912-4.44-7.0112-3.67-1.74 0.77-6.2999 6.6317-6.2999 8.0917 0 0.45-0.2889 0.84012-0.6289 0.84012-0.84 0.01-3.5675 4.8457-3.5675 6.3157 0 2.56-3.2522 3.0933-6.5422 1.0833-1.72-1.04-3.2371-2.1799-3.3871-2.5499-0.16-0.36-0.7005-0.678-1.1805-0.678-0.98 0-9.8529-8.463-9.8829-9.433-0.01-0.33-1.6773-4.1328-3.7273-8.4528-2.05-4.33-4.4124-10.389-5.2224-13.449-1.49-5.56-1.4661-5.5512 0.79392-15.041 1.39-5.84 2.5954-14.356 3.1654-22.116 0.51-6.93 1.2606-13.458 1.6806-14.518 0.42-1.05 1.1642-7.2921 1.6342-13.862 0.19829-2.7377 0.47207-3.0794 0.64442-5.1292 1.0445-12.423 1.9952-15.654 8.9909-23 6.75-7.083 9.8555-10.705 13.456-15.704 0.92-1.285 2.8065-3.5813 4.1965-5.0923 5.7899-6.319 7.6568-8.5316 9.1868-10.922 1.85-2.898 5.0072-5.8755 8.0372-7.5685 2.6399-1.476 13.853-12.946 14.543-14.886 0.72-1.999-1.5458-4.0238-4.5058-4.0238-2.34 0-2.4688-0.17285-2.4488-3.5668 0.04-7.44 7.1159-27.553 11.476-32.64 2.13-2.4899 7.8827-3.424 22.323-3.6479 9.26-0.1436 14.522-0.5578 15.152-1.1865 0.53-0.5297 1.4467-0.97277 2.0467-0.97277 1.61 0 6.1245-4.2567 6.1245-5.7777 0-1.313 3.8457-5.1439 5.1657-5.1439 0.39 0 0.7063-0.76673 0.7063-1.7097s0.7227-2.7339 1.5827-3.9869c0.86-1.252 3.0141-4.5597 4.7841-7.3327 1.77-2.774 4.8406-6.4876 6.8206-8.2686 3.6-3.239 3.5949-3.2353 4.1449 0.21372 0.31 1.896 0.809 3.4342 1.129 3.4342 0.92 0 2.5571-8.0678 2.5571-12.58 0-3.899 3.827-14.489 7.037-19.507 1.67-2.622 3.8768-10.453 3.8768-13.715 0-2.461 0.202-2.5937 2.5519-2.2477 4.38 0.642 10.724-2.8423 12.744-6.9863 0.71-1.459 0.6034-1.4188-0.7166 0.18424-2.9199 3.529-10.056 4.7412-13.316 2.2772-1.82-1.376-1.84-1.4249-1.99-5.8809-0.16-4.642-2.0881-3.076-2.7581 2.233-0.32 2.606-0.2338 4.6744 0.2062 4.8344 1.41 0.504 0.8093 8.4173-1.0207 13.707-2.71 7.84-7.8185 17.706-11.398 22.005-1.76 2.116-4.6597 5.7373-6.4597 8.0622-1.8 2.325-3.9217 4.4233-4.7017 4.6723-0.79 0.25-1.8669 1.4029-2.3869 2.5498-0.52 1.146-1.6236 2.0708-2.4436 2.0708-2.1 0-11.156 5.9087-11.156 7.2737 0 0.62-1.6127 2.1295-3.5727 3.3605-1.97 1.23-3.7705 2.5003-4.0005 2.8373-0.23 0.336-1.9289 0.81884-3.7789 1.0538-1.85 0.234-4.2082 0.68636-5.2482 1.0244-1.57 0.509-1.892 0.3154-1.892-1.2086 0-3.825-2.7504-7.1374-4.9904-5.9914-1.78 0.915-4.0594 0.14187-2.4694-0.84013 1.82-1.121 0.2278-1.8322-1.7322-0.78116-0.99 0.52899-4.5164 1.1724-7.8464 1.4444-3.33 0.271-6.3204 0.90695-6.6504 1.415-0.33 0.517-2.5086 0.83795-4.9286 0.73695-2.61-0.11-5.3317 0.33754-6.8617 1.1275-1.61 0.832-3.6584 1.1562-5.5884 0.86224-1.68-0.255-6.0746-0.85689-9.7746-1.3339-3.69-0.477-7.5752-1.2427-8.6352-1.7097s-2.5124-0.86224-3.2324-0.86224-2.4341-0.91272-3.7841-2.0487-2.9532-1.8727-3.5932-1.6287c-0.63 0.243-1.4068 0.0435-1.7168-0.44954-0.3-0.494-1.3286-0.92119-2.2786-0.92119-1.97 0-8.2692-3.3174-8.2692-4.3554 0-0.377-0.4086-0.68536-0.9486-0.68536-0.58 0-0.4073 0.63597 0.4227 1.555 0.77 0.845 1.3662 2.1478 1.3662 2.8888 0 0.742 0.7018 1.567 1.5518 1.835 2.54 0.80599 5.1708 3.7618 5.1708 5.7998 0 1.054 0.9907 2.7466 2.1807 3.7806 1.19 1.033 2.551 3.0018 3.021 4.3628 0.48 1.361 1.2091 2.4688 1.6291 2.4688 0.41 0 0.7321 0.77073 0.7321 1.7097 0 0.93879 0.5679 1.9374 1.2579 2.2035 0.7 0.266 1.2631 0.81801 1.2631 1.2307s-0.5731 0.73695-1.2631 0.73695-1.2579-0.37793-1.2579-0.84013c0-0.4621-0.612-0.84012-1.392-0.84012-3.54 0-20.456-8.3802-24.246-12.027-0.50207-0.48234-3.2035-2.7394-5.908-4.967-0.31204-0.25702-0.36396-0.31549-0.6805-0.57482-4.88-4.001-6.0694-5.6145-9.7694-13.074-2.32-4.676-4.238-9.4172-4.248-10.553-0.03-1.978-1.7186-10.089-2.9386-14.054-0.75999-2.467 1.685-2.6162 2.985-0.18424 1.02 1.909 6.8871 5.8514 8.6971 5.8514 2.13 0 1.9614-1.9604-0.94859-11.135-2.92-9.185-4.1154-10.605-5.9854-7.1116-1.14 2.127-3.2199 3.1679-10.45 5.2029-4.77 1.34-5.0077 1.316-8.7177-0.47902-4.04-1.955-8.661-5.9605-8.661-7.5095 0-0.51-1.0721-2.5044-2.3921-4.4364-1.33-1.932-4.7223-8.1414-7.5423-13.788-4.71-9.43-5.1455-10.772-5.3255-16.382-0.25-7.51 0.98708-13.267 3.3871-15.837 0.99-1.07 1.7786-2.1593 1.7786-2.4393 0-0.85 5.4103-2.5498 8.1403-2.5498 2.32 0 6.9907 3.3513 6.9907 5.0113 0 0.32 1.494 1.3877 3.284 2.3877 1.84 1.04 3.689 2.9428 4.2789 4.3628 1.86 4.48 3.4579 3.2033 2.9179-2.3067-0.26-2.66-0.61454-8.1439-0.81454-12.204-0.19-4.07-0.56455-7.7433-0.81455-8.1433-1.06-1.71-0.76068-32.901 0.30932-33.561 0.83999-0.52 0.87497-2.0484 0.16497-7.1484-1.13-8.12-1.1724-13.691-0.08248-14.371 0.46-0.28 0.84032-1.2519 0.84032-2.1519 0-0.89-0.38032-1.6287-0.84032-1.6287s-0.84032-1.7964-0.84032-4.0164c0-2.21-0.40766-4.4497-0.91766-4.9597-0.67-0.66999-0.46638-1.3835 0.78362-2.6235 3.12-3.12 4.2545-5.5788 4.4645-9.6688 0.11-2.22 0.52219-4.2038 0.90219-4.4438 0.37-0.23 0.64442-1.3704 0.64442-2.5204 0-4.41 10.341-14.614 14.811-14.614 1.94 0 9.0358-3.5256 10.976-5.4756 2.69-2.68 8.4731-6.1448 12.053-7.2148 2.07-0.60999 5.3809-1.9815 7.3309-3.0215 3.29-1.73 4.0715-1.8086 10.502-1.0686 3.83 0.44 10.85 0.80065 15.6 0.81065 5.75 0 9.6356 0.42019 11.636 1.2602 3.51 1.47 8.565 0.91874 12.445-1.3412 1.4-0.81 3.9877-1.7287 5.7276-2.0487 1.74-0.31 3.3743-0.90178 3.6243-1.3118 0.26-0.41 1.4565-0.74906 2.7065-0.75906 1.24-0.01 3.9187-0.77025 5.9287-1.6802 2.01-0.90999 4.4695-1.4802 5.4595-1.2602 1 0.22 6.3328 0.56117 11.873 0.78117 11.2 0.45 16.738 1.7881 21.008 5.0481 4.25 3.24 8.6605 8.0896 10.14 11.18 0.72 1.51 1.6583 2.7267 2.0983 2.7267s0.7939 0.3538 0.7939 0.7738 1.3186 2.7218 2.9386 5.1218c1.62 2.4 2.9437 5.183 2.9437 6.183 0 1.01 0.5138 2.5905 1.1238 3.5005 0.61 0.90999 1.585 3.9215 2.155 6.6915 0.57 2.78 1.5989 6.9387 2.2889 9.2487 0.69 2.31 1.3609 5.9012 1.5209 7.9812 0.16 2.08 0.6745 4.7309 1.1445 5.8809 3.67 8.95 5.2139 16.372 6.1039 29.522 0.51 7.57 1.4589 15.967 2.1189 18.667 0.66 2.69 1.1908 8.2682 1.1908 12.388 0 5.85 0.2706 7.4948 1.1806 7.4948 1.5 0 2.1807-1.8293 2.1807-5.8293 0-8.51 2.1972-10.96 8.3672-9.3003 2.31 0.63 3.8439 1.817 5.6038 4.407 2.4 3.54 2.4129 3.6933 2.2529 15.063-0.17 11.76-0.5972 13.71-4.3872 19.61-0.89 1.39-1.6406 3.5354-1.6806 4.7754-0.014 0.56913-0.2776 0.80047-0.4228 1.2823v4.7165c0.1762-0.73892 0.2749-0.5033 0.4537-1.3191 1.07-4.93 2.6496-9.276 4.2996-11.946 2.59-4.19 2.6108-4.3119 2.6808-16.412 0.08-12.19 0.0695-12.187-2.521-16.397-1.67-2.72-3.4468-4.4592-5.0368-4.9892-1.35-0.44-2.5772-0.88277-2.7272-0.97277-0.15-0.08 0.1181-0.88184 0.5981-1.7318 2.14-3.81 6.8308-13.987 6.8308-14.857 2.64-6.91 3.784-4.9196 5.2739-14.85 0.59-3.91-0.3059-6.5703 0.6341-9.0203 0.66-1.74 1.2559-6.7127 1.3559-11.143 0.27-16.56-1.3471-20.812 1.0929-35.742 1.54-9.43 1.1306-16.984-2.1394-22.764-5.09-3.88-7.8699-8.1415-8.7899-13.471-1.41-8.17-1.5917-8.6092-4.7017-12.049-3.68-4.07-12.581-10.493-15.451-11.143-0.7199-0.16-1.715-0.40588-2.655-0.65588-0.75-0.75-1.4625-1.556-2.5725-1.636-1.16-0.64-2.2978-1.374-3.0778-2.454-0.02-0.1-0.0418-0.19478-0.0618-0.29478-0.8-3.3-3.9945-15.809-5.1245-20.089-2.03-7.69-10.407-20.021-32.427-24.681-1.94-1.07-7.409-3.5718-10.089-4.7018-1.29-0.68-3.3288-1.4865-4.4388-1.4665-1.43 0.02-3.0298 0.35858-4.6398 1.0686l-7.3051 1.7687c-0.44-0.53-1.7852-1.5204-3.6552-2.6604-3.84-2.34-6.6593-3.4152-10.099-3.3752v-0.00737zm-28.561 4.0016c0.46 0.01 0.9384 0.03369 1.4384 0.07369-0.39-0.02-0.7806-0.03422-1.1806-0.04422-0.09-0.01-0.1678-0.01947-0.2578-0.02947zm58.596 1.5402c0.19 0.01 0.3294 0.02421 0.4794 0.04421 0.23 0.18 0.4612 0.37956 0.7012 0.58956-0.37-0.25-0.7606-0.47378-1.1806-0.63377zm11.971 5.3945c0.29 0.15 0.6335 0.31902 0.9435 0.47902-0.28-0.09-0.5604-0.1853-0.8404-0.2653-0.02-0.07-0.0531-0.13372-0.1031-0.21372zm-119.21 14.724c-0.32 0.26-0.63281 0.49904-0.92281 0.61904-0.09-0.03-0.1887-0.05633-0.2887-0.06633 0.42-0.17 0.83151-0.35271 1.2115-0.55271zm-11.388 5.3945c-0.13 0.2-0.22354 0.41589-0.28354 0.65589-0.12-0.03-0.25119-0.08739-0.37119-0.14739 0.22-0.16 0.43473-0.3285 0.65473-0.5085zm160.03 3.7069c0.12 0 0.2302 0.15165 0.3402 0.47165-0.18-0.2-0.4508-0.25898-0.6908-0.19898 0.13-0.18 0.2406-0.27267 0.3506-0.27267zm-38.258 121.29c-0.45 0-0.8946-0.00263-1.3146 0.00737-2.02 0.04-3.6351 0.20272-3.9851 0.55272-0.32 0.31999-1.4073 0.7196-2.3973 0.8696-5.7 0.87-5.0047 7.7984 1.0053 10.258h0.0258c1.16 0.47 3.0207 0.68902 4.1707 0.47902 1.16-0.21 5.3238-1.0524 9.2538-1.8424 10.51-2.11 28.571-1.6552 28.571 0.71485 0 0.40999 1.131 0.64534 2.521 0.54534 3.41-0.26 3.1659-1.1777-0.6341-2.3877-1.74-0.55-4.8488-1.8683-6.9288-2.9183-7.49-3.78-9.7534-4.4559-14.713-4.4659-2.78 0-6.1082-0.40382-7.4082-0.91382-1.43-0.55-5.0261-0.86908-8.1661-0.89908zm-54.59 1.7392c-0.97 0.01-1.9237 0.37595-2.9437 1.076-1.06 0.74-4.2208 1.1491-8.8208 1.1791-5.67 0.03-8.2582 0.48086-12.548 2.2108-2.9799 1.2-6.2493 2.1814-7.2793 2.1814s-2.948 0.8803-4.248 1.9603c-1.31 1.09-3.1528 2.3983-4.0728 2.9183-1.98 1.11-1.8792 1.1222 17.781 1.0022 16.93-0.1 24.653 2.5766 24.653 8.5265 0 1.57 0.4379 2.3951 1.2579 2.3951 0.84 0 1.2579 0.84038 1.2579 2.5204 0 1.64-0.4112 2.5204-1.2012 2.5204-0.67 0-1.8917-1.1304-2.7117-2.5204-0.82-1.38-1.9458-2.5204-2.5158-2.5204s-2.0598-0.94032-3.3098-2.1003c-2.18-2.02-4.5318-2.7792-4.5418-1.4592-0.01 0.34-3.3116 0.72486-7.3516 0.85486-4.41 0.14-9.7089 0.92977-13.239 1.9898-5.29 1.6-6.448 2.3933-11.548 7.7232-3.12 3.27-5.6503 6.2184-5.6503 6.5884 0.0445 1.161 4.848-0.18743 9.2178-2.6162 1.38-0.77 4.7539-1.1233 10.084-1.0833 9.89 0.09 13.445-0.84737 13.445-3.5374 0-1.06 0.5946-2.4315 1.3146-3.0215 1.09-0.91 1.6475-0.66133 3.5675 1.6287 2.07 2.47 2.7905 2.7431 7.9805 3.0731 4.3699 0.28 5.8004 0.08461 6.1504-0.82538 0.25-0.65 1.5685-1.6261 2.9385-2.1961 6.65-2.75 8.2955-17.143 2.5055-22.013-0.96-0.8-1.7631-1.2212-1.7631-0.92119 0 0.31-1.3829-0.82037-3.0829-2.5204-2.04-2.04-3.6955-3.0241-5.3255-3.0141zm-123.82 6.7357c0.05 0 0.11013 0.00898 0.17013 0.02948-0.03 0-0.04733 0.00504-0.07733 0.01474-0.23999 0.14-0.37274 0.33008-0.42274 0.56008-0.04-0.36 0.0268-0.54956 0.22683-0.58956 0.03 0 0.06311-0.01474 0.10311-0.01474zm147.72 55.485c-0.71-0.03-2.1466 0.74321-5.1966 0.38321-5.06-0.58999-11.971 1.8306-11.971 4.2006 0 0.65-0.3906 1.1791-0.8506 1.1791-1.38 0-0.939 5.2162 0.531 6.2862 1.8 1.32 8.502-0.32986 10.352-2.5499 0.73-0.87999 2.0871-3.4064 4.217-4.0164 2.12-0.61 7.208-5.3329 2.918-5.4829zm-26.968 0.24319c-0.29 0.04-0.6432 0.23639-1.1032 0.48639-2.12 1.13-2.9682 6.6847-1.5982 10.465 1.24 3.44 2.2636 3.7018 4.4336 1.1718 1.41-1.65 1.4595-2.242 0.4795-6.522-1.04-4.52-1.3517-5.7008-2.2117-5.6008zm-100.57 2.174c0.54 0.67 1.2515 1.2181 2.0415 1.5181-0.69-0.17-1.277-0.53069-1.727-1.0907-0.12-0.14-0.23448-0.28743-0.31448-0.42743zm-7.3309 6.1314c0.18 0.45 0.3382 0.86597 0.4382 1.216 0.0454 0.15433 0.08449 0.29695 0.11342 0.4348-0.16-0.56-0.35162-1.1108-0.55162-1.6508zm11.728 5.4313c-0.09 0-0.16777-0.00263-0.25777 0.00737-3.07 0.22-5.8872 2.6684-6.8772 6.5883-0.8 3.21 0.12487 12.094 1.6549 15.734 1.99 4.753 3.0417 3.0345 3.0417-4.9155 0-3.88 0.43281-7.9376 0.92281-9.0276 1.3-2.85 3.7992-4.2215 5.7792-3.1615 3.81 2.04 3.5197-1.4111-0.34025-4.0311-1.25-0.86-2.6132-1.2339-3.9232-1.1939z" stroke-width="1.0004"/><path d="m1166-268.71c0.53 5.23 2.2492 6.5578 3.6792 2.8078 1.92-5.05 1.9523-11.946 0.082-17.576-1.97-5.92-2.7215-6.8722-5.9415-7.6422-0.78-0.18-1.4259-0.28741-1.9659-0.28741-2.32 0.02-2.4034 1.8461-0.3734 5.8661 2.52 4.98 3.7993 9.692 4.5193 16.832z"/><path d="m1166-245.96v-4.7165c-0.1712 0.56797-0.2454 1.3539-0.4997 1.5108-0.46 0.28-0.8476 1.9111-0.8676 3.6111-0.02 1.711-0.5332 4.5237-1.1532 6.2567-0.62 1.733-1.0002 3.1542-0.8402 3.1542 0.7494 0 2.0487-4.3148 3.3607-9.8162z"/></g></svg>
